HIERARCHY
ROOT Hips
{
	OFFSET 0.000000 8.830580 0.000000
	CHANNELS 6 Xposition Yposition Zposition Zrotation Yrotation Xrotation 
	JOINT Spine
	{
		OFFSET 0.000000 0.010000 0.000000
		CHANNELS 3 Zrotation Yrotation Xrotation
		JOINT Spine1
		{
			OFFSET 0.000000 2.459130 0.000000
			CHANNELS 3 Zrotation Yrotation Xrotation
			JOINT Neck
			{
				OFFSET 0.000000 2.484630 0.000000
				CHANNELS 3 Zrotation Yrotation Xrotation
				JOINT Head_virtual
				{
					OFFSET 0.000000 0.000000 0.000000
					CHANNELS 3 Zrotation Yrotation Xrotation
					JOINT Head
					{
						OFFSET 0.000000 0.927525 0.000000
						CHANNELS 3 Zrotation Yrotation Xrotation
						End Site
						{
							OFFSET 0.000000 0.000000 0.000000
						}
					}
				}
				JOINT LeftUpArm_virtual
				{
					OFFSET 0.000000 0.000000 0.000000
					CHANNELS 3 Zrotation Yrotation Xrotation
					JOINT LeftUpArm
					{
						OFFSET 1.248820 0.000000 0.000000
						CHANNELS 3 Zrotation Yrotation Xrotation
						JOINT LeftForeArm
						{
							OFFSET 2.597580 0.000000 0.000000
							CHANNELS 3 Zrotation Yrotation Xrotation
							JOINT LeftHand
							{
								OFFSET 2.455420 0.000000 0.000000
								CHANNELS 3 Zrotation Yrotation Xrotation
								End Site
								{
									OFFSET 0.000000 0.000000 0.000000
								}
							}
						}
					}
				}
				JOINT RightUpArm_virtual
				{
					OFFSET -0.000000 -0.000000 -0.000000
					CHANNELS 3 Zrotation Yrotation Xrotation
					JOINT RightUpArm
					{
						OFFSET -1.248820 -0.000000 -0.000000
						CHANNELS 3 Zrotation Yrotation Xrotation
						JOINT RightForeArm
						{
							OFFSET -2.597580 -0.000000 -0.000000
							CHANNELS 3 Zrotation Yrotation Xrotation
							JOINT RightHand
							{
								OFFSET -2.455420 -0.000000 -0.000000
								CHANNELS 3 Zrotation Yrotation Xrotation
								End Site
								{
									OFFSET 0.000000 0.000000 0.000000
								}
							}
						}
					}
				}
			}
		}
	}
	JOINT LeftUpLeg
	{
		OFFSET 1.271939 0.000000 0.000000
		CHANNELS 3 Zrotation Yrotation Xrotation
		JOINT LeftLowLeg
		{
			OFFSET 0.000000 -4.342910 0.000000
			CHANNELS 3 Zrotation Yrotation Xrotation
			JOINT LeftFoot
			{
				OFFSET 0.000000 -4.487670 0.000000
				CHANNELS 3 Zrotation Yrotation Xrotation
				JOINT LeftToeBase
				{
					OFFSET 0.000000 0.000000 1.515070
					CHANNELS 3 Zrotation Yrotation Xrotation
					End Site
					{
						OFFSET 0.000000 0.000000 0.000000
					}
				}
			}
		}
	}
	JOINT RightUpLeg
	{
		OFFSET -1.271939 0.000000 0.000000
		CHANNELS 3 Zrotation Yrotation Xrotation
		JOINT RightLowLeg
		{
			OFFSET 0.000000 -4.342910 0.000000
			CHANNELS 3 Zrotation Yrotation Xrotation
			JOINT RightFoot
			{
				OFFSET 0.000000 -4.487670 0.000000
				CHANNELS 3 Zrotation Yrotation Xrotation
				JOINT RightToeBase
				{
					OFFSET 0.000000 0.000000 1.515070
					CHANNELS 3 Zrotation Yrotation Xrotation
					End Site
					{
						OFFSET 0.000000 0.000000 0.000000
					}
				}
			}
		}
	}
}
MOTION
Frames: 12
Frame Time: 0.041667
-10.878979 8.400112 46.750614 166.743930 30.656106 179.880919 -9.371017 35.676850 -19.204484 -10.325102 -25.568839 10.429487 0.000000 0.000000 0.000000 -6.238678 20.777757 6.853440 -12.179336 -7.944880 -78.988495 -23.155399 10.397400 -0.720001 -46.340801 -13.819900 -52.233501 180.000000 -59.647003 -180.000000 69.311203 45.639500 -10.218000 20.216600 -8.858720 0.970001 58.857899 -4.313240 -4.228320 0.000000 16.420799 0.000000 -1.537320 -11.347900 -11.606100 -21.841563 -3.793108 -7.816920 0.000000 0.000000 10.706800 -6.527828 13.738610 -2.004163 0.000000 0.000000 -18.255710 -13.970410 2.168399 -28.923268 0.000000 0.000000 83.272697 34.564954 -4.522962 8.621753 0.000000 0.000000 -23.368950 
-10.804453 8.414906 46.637251 167.798855 30.649567 -179.866368 -8.895242 35.252957 -18.162203 -9.665586 -26.163192 9.811605 0.000000 0.000000 0.000000 -4.700955 20.542685 6.943378 -11.674567 -7.092452 -79.020971 -22.547199 10.421200 -0.489990 -46.663200 -14.580700 -51.368000 -180.000000 -59.914001 180.000000 69.554298 45.091499 -9.514800 20.274200 -9.339580 0.600006 59.050900 -4.621830 -4.879450 0.000000 16.321100 0.000000 -2.112230 -11.653200 -13.746300 -21.049932 -3.782374 -7.037316 0.000000 0.000000 11.396400 -6.448698 14.145029 -2.913407 0.000000 0.000000 -17.974870 -12.304989 2.649173 -31.697708 0.000000 0.000000 83.113197 33.189680 -5.635293 5.316216 0.000000 0.000000 -22.017590 
-10.711840 8.435378 46.508095 169.153665 30.419882 -179.181454 -9.098201 34.351386 -18.052558 -8.279684 -26.767732 9.350020 0.000000 0.000000 0.000000 -3.320909 20.476036 7.207852 -10.852133 -6.361036 -79.424452 -22.344400 9.977620 -0.601990 -46.779499 -14.331700 -51.305099 -180.000000 -59.531998 180.000000 67.726601 46.190601 -11.242700 20.482201 -9.487300 0.347992 58.799900 -5.145070 -5.540850 0.000000 16.392900 0.000000 -0.805678 -9.561410 -9.122290 -19.964356 -4.065428 -6.174567 0.000000 0.000000 11.733800 -6.765493 14.517812 -3.846495 0.000000 0.000000 -18.169370 -10.321394 3.119788 -33.977910 0.000000 0.000000 81.566597 32.600059 -6.708043 2.227658 0.000000 0.000000 -19.913040 
-10.616937 8.454226 46.377690 170.598062 29.767111 -179.145484 -8.849085 33.487944 -17.233506 -7.174385 -27.471970 9.211694 0.000000 0.000000 0.000000 -1.374206 20.144791 7.380637 -10.057256 -5.396476 -79.715984 -21.903500 9.666900 -0.321991 -46.912102 -14.780200 -50.719799 180.000000 -59.370003 180.000000 67.834702 45.674000 -11.427800 20.849001 -9.706200 0.250000 58.509701 -5.461320 -6.199660 0.000000 16.596399 0.000000 -0.877544 -10.321700 -11.891100 -18.841369 -4.748193 -4.624525 0.000000 0.000000 12.186700 -6.591509 15.290018 -4.643403 0.000000 0.000000 -18.329040 -8.340801 4.021442 -35.207279 0.000000 0.000000 79.159302 33.463604 -7.108426 -0.326510 0.000000 0.000000 -19.219190 
-10.528498 8.466473 46.265639 171.685207 29.482600 -178.503718 -9.214290 32.708154 -16.828477 -6.037427 -27.848727 8.633868 0.000000 0.000000 0.000000 0.901933 19.649026 7.752931 -9.272304 -4.400366 -80.202826 -21.501699 9.244340 0.003998 -46.945099 -15.323900 -50.255299 180.000000 -59.099998 -180.000000 67.860100 45.239300 -11.582200 21.233200 -9.887560 0.108002 58.151901 -5.788630 -6.382540 0.000000 16.767099 0.000000 -0.608575 -10.662500 -11.254500 -17.922330 -5.199348 -4.090037 0.000000 0.000000 12.792000 -6.930430 15.671321 -5.574335 0.000000 0.000000 -18.254230 -6.892175 5.028376 -37.194155 0.000000 0.000000 75.950699 33.487982 -7.331651 -1.663807 0.000000 0.000000 -20.972620 
-10.443733 8.473742 46.157480 172.535435 29.111701 -176.716381 -10.325966 31.727171 -17.542965 -5.014087 -28.170952 7.765529 0.000000 0.000000 0.000000 3.096780 19.216358 8.064055 -8.297799 -3.392167 -80.653059 -21.176100 8.953460 -1.209015 -47.130100 -14.771200 -48.692902 -180.000000 -58.866997 180.000000 67.179802 45.508701 -12.845800 21.628000 -10.307500 -1.019012 57.685101 -6.833650 -5.794780 0.000000 16.902000 0.000000 -0.482597 -10.849100 -10.779000 -17.071880 -5.900685 -4.786600 0.000000 0.000000 13.367400 -7.352652 15.805768 -6.427278 0.000000 0.000000 -18.265740 -6.042810 5.883596 -40.134796 0.000000 0.000000 72.002899 33.422760 -7.033321 -2.508589 0.000000 0.000000 -21.022020 
-10.358982 8.476056 46.047707 173.131409 28.884592 -175.329374 -11.457139 30.882345 -18.123026 -4.175441 -28.270731 7.253589 0.000000 0.000000 0.000000 5.270027 18.863851 8.291886 -7.192765 -2.288218 -81.007437 -20.867399 8.330260 -1.002991 -46.921902 -15.240000 -48.337200 180.000000 -58.515999 -180.000000 67.616600 45.576302 -11.783500 21.969299 -10.614400 -1.304993 57.446701 -7.021520 -6.008680 0.000000 16.672800 0.000000 -0.349663 -10.530500 -11.654200 -16.453044 -6.183704 -5.173342 0.000000 0.000000 13.810300 -8.062154 15.627645 -7.304831 0.000000 0.000000 -18.056890 -5.640722 6.919544 -42.444817 0.000000 0.000000 67.296700 33.043205 -6.242549 -2.955943 0.000000 0.000000 -20.829450 
-10.273118 8.475627 45.928808 173.749593 28.657907 -174.384601 -12.202830 30.231203 -18.331298 -3.613212 -28.368737 6.939106 0.000000 0.000000 0.000000 7.501531 18.490929 8.688643 -6.196190 -1.171080 -81.388367 -20.600100 7.780400 -0.653992 -46.611599 -15.815000 -47.966099 -180.000000 -58.211998 180.000000 68.024597 45.565701 -11.457700 22.372999 -10.917300 -1.476013 57.187302 -7.168510 -5.789780 0.000000 16.544500 0.000000 -0.667881 -10.585700 -11.860900 -15.865316 -6.526358 -4.972534 0.000000 0.000000 14.069400 -8.350342 15.757070 -8.053118 0.000000 0.000000 -18.072470 -5.426532 8.156671 -43.824954 0.000000 0.000000 61.756001 32.895341 -5.175090 -3.082878 0.000000 0.000000 -21.060460 
-10.168579 8.478794 45.767114 174.800354 27.165682 -174.217228 -12.477035 29.143064 -18.502155 -3.202544 -29.079041 7.722504 0.000000 0.000000 0.000000 9.978793 17.900856 9.425679 -5.598526 -0.100844 -81.915221 -20.518999 7.230630 -0.337006 -46.142101 -16.372200 -47.663799 -180.000000 -57.918999 180.000000 68.237999 45.758202 -10.909100 22.836000 -11.114500 -1.615997 56.892101 -7.377890 -5.679180 0.000000 16.348301 0.000000 -0.825519 -10.516100 -11.670400 -14.951251 -7.599846 -3.318371 0.000000 0.000000 14.151700 -8.647864 15.740355 -8.787692 0.000000 0.000000 -18.239050 -5.577023 10.420877 -43.637321 0.000000 0.000000 56.178299 33.090659 -4.310808 -3.304458 0.000000 0.000000 -21.368500 
-10.087412 8.471655 45.645394 175.311504 27.712078 -173.538536 -12.970391 29.138704 -18.499950 -2.917490 -28.748584 7.385266 0.000000 0.000000 0.000000 12.068053 17.554320 10.030999 -4.999156 0.955968 -82.443987 -20.503901 6.658290 -0.253998 -45.705299 -16.772301 -47.178398 180.000000 -57.649002 180.000000 68.382103 45.849499 -10.675000 23.288601 -11.397100 -1.894012 56.615200 -7.544300 -5.733420 0.000000 15.801300 0.000000 -0.728697 -9.785320 -11.684200 -14.557219 -7.063491 -2.895705 0.000000 0.000000 14.197300 -9.148140 15.700580 -9.522204 0.000000 0.000000 -18.357060 -5.691934 11.612996 -43.874881 0.000000 0.000000 48.737999 33.465863 -1.607729 -3.064608 0.000000 0.000000 -20.719800 
-10.004400 8.457055 45.509956 175.497112 27.803493 -172.841422 -13.849148 28.757901 -18.854539 -2.551703 -28.541105 7.186921 0.000000 0.000000 0.000000 13.620534 17.348515 10.453479 -4.484115 1.827094 -82.620611 -20.442900 6.127870 -0.279999 -45.583698 -17.072399 -46.664700 180.000000 -57.331001 -180.000000 68.544899 46.261799 -10.253300 23.457600 -11.685700 -2.161987 56.587299 -7.740190 -5.814400 0.000000 15.588900 0.000000 -0.902402 -10.400400 -11.633300 -14.405561 -6.682049 -2.595704 0.000000 0.000000 14.424700 -9.681717 15.315018 -10.149541 0.000000 0.000000 -18.512790 -7.025459 13.979117 -44.412259 0.000000 0.000000 41.898899 34.626247 0.934598 -3.126816 0.000000 0.000000 -19.769260 
-9.918720 8.447743 45.351615 176.132780 27.305806 -172.180653 -14.301218 28.332846 -19.510818 -2.377946 -28.713379 7.656553 0.000000 0.000000 0.000000 15.052482 17.111051 10.906858 -4.178006 2.564157 -83.091222 -20.607800 5.509960 -0.165985 -45.274799 -17.325899 -46.304100 180.000000 -57.096001 180.000000 68.652802 46.440601 -10.085500 23.877600 -11.840900 -2.473999 56.310699 -7.960830 -6.387350 0.000000 15.239600 0.000000 -0.753104 -10.554000 -11.021700 -13.885209 -6.889844 -1.979792 0.000000 0.000000 14.875000 -10.468193 14.888668 -10.921650 0.000000 0.000000 -18.697890 -8.095601 16.046853 -43.672550 0.000000 0.000000 34.087700 37.098186 3.655176 -3.614162 0.000000 0.000000 -19.037200 
